<?xml version="1.0" encoding="UTF-8"?>
<svg viewBox="0 0 1118 803" version="1.1" xmlns="http://www.w3.org/2000/svg" xmlns:xlink="http://www.w3.org/1999/xlink">
    <!-- Generator: Sketch 63.1 (92452) - https://sketch.com -->
    <title>undraw_savings</title>
    <desc>Created with Sketch.</desc>
    <defs>
        <linearGradient x1="49.9999966%" y1="100%" x2="49.9999966%" y2="5.49953934e-07%" id="linearGradient-1">
            <stop stop-color="#808080" stop-opacity="0.25" offset="0%"></stop>
            <stop stop-color="#808080" stop-opacity="0.12" offset="53.514%"></stop>
            <stop stop-color="#808080" stop-opacity="0.1" offset="100%"></stop>
        </linearGradient>
    </defs>
    <g id="Page-1" stroke="none" stroke-width="1" fill="none" fill-rule="evenodd">
        <g id="undraw_savings">
            <ellipse id="Oval" fill="#F9A826" fill-rule="nonzero" opacity="0.1" cx="559" cy="734.87374" rx="559" ry="67.94571"></ellipse>
            <path d="M956.48613,768.17829 C956.48613,768.17829 985.64063,731.07962 983.28324,694.27212 C982.195505,678.839826 986.143218,663.471097 994.53366,650.47343 C998.565032,644.334052 1003.15048,638.576984 1008.23249,633.27443" id="Path" stroke="#535461" stroke-width="2"></path>
            <path d="M1006.88531,610.06981 C1004.82967,615.22181 1008.19716,633.88419 1008.19716,633.88419 C1008.19716,633.88419 1023.48684,622.66595 1025.54247,617.51391 C1027.59347,612.362991 1025.08281,606.524429 1019.93333,604.469815 C1014.78385,602.415202 1008.94353,604.92177 1006.88531,610.06981 L1006.88531,610.06981 Z" id="Path" fill="#F9A826" fill-rule="nonzero"></path>
            <path d="M980.07889,632.45555 C981.15347,637.89746 994.12307,651.73266 994.12307,651.73266 C994.12307,651.73266 1000.86036,634.00606 999.78578,628.56415 C999.090648,625.043853 996.570264,622.161813 993.174032,621.003666 C989.7778,619.84552 986.021688,620.587216 983.320587,622.949366 C980.619486,625.311516 979.383758,628.935253 980.07889,632.45555 L980.07889,632.45555 Z" id="Path" fill="#F9A826" fill-rule="nonzero"></path>
            <path d="M961.29435,681.49204 C964.96909,685.6472 983.14901,691.04296 983.14901,691.04296 C983.14901,691.04296 980.01625,672.33977 976.3415,668.18461 C973.964636,665.495639 970.3336,664.279251 966.816571,664.993784 C963.299543,665.708317 960.43103,668.245178 959.291895,671.648473 C958.152759,675.051768 958.916123,678.804274 961.29435,681.49204 L961.29435,681.49204 Z" id="Path" fill="#F9A826" fill-rule="nonzero"></path>
            <path d="M955.43655,721.79455 C958.35625,726.51095 975.363006,734.90138 975.363006,734.90138 C975.363006,734.90138 975.43584,715.93778 972.51614,711.22138 C970.628418,708.168232 967.254775,706.354638 963.666851,706.464204 C960.078926,706.57377 956.822231,708.589836 955.124323,711.75248 C953.426415,714.915125 953.545447,718.743495 955.43655,721.79455 L955.43655,721.79455 Z" id="Path" fill="#F9A826" fill-rule="nonzero"></path>
            <path d="M1013.31214,660.54588 C1008.18435,662.66128 989.48414,659.51101 989.48414,659.51101 C989.48414,659.51101 1000.52385,644.09193 1005.65164,641.97653 C1010.77942,639.861133 1016.65118,642.303156 1018.76658,647.43094 C1020.88198,652.558724 1018.43995,658.430483 1013.31217,660.54588 L1013.31214,660.54588 Z" id="Path" fill="#F9A826" fill-rule="nonzero"></path>
            <path d="M1005.86343,707.59307 C1000.33761,708.07725 983.4367,699.47595 983.4367,699.47595 C983.4367,699.47595 998.58423,688.0665 1004.11005,687.58231 C1007.68666,687.265384 1011.1604,688.88189 1013.22125,691.822211 C1015.28209,694.762531 1015.61653,698.57935 1014.09843,701.833263 C1012.58034,705.087177 1009.44065,707.283164 1005.86343,707.59307 L1005.86343,707.59307 Z" id="Path" fill="#F9A826" fill-rule="nonzero"></path>
            <path d="M992.349,752.32701 C986.98448,753.73801 968.87309,748.11659 968.87309,748.11659 C968.87309,748.11659 981.87465,734.31141 987.23917,732.90037 C992.603689,731.489329 998.096364,734.694256 999.507405,740.058775 C1000.91845,745.423294 997.713519,750.915969 992.349,752.32701 Z" id="Path" fill="#F9A826" fill-rule="nonzero"></path>
            <path d="M1006.88531,610.06981 C1004.82967,615.22181 1008.19716,633.88419 1008.19716,633.88419 C1008.19716,633.88419 1023.48684,622.66595 1025.54247,617.51391 C1027.59347,612.362991 1025.08281,606.524429 1019.93333,604.469815 C1014.78385,602.415202 1008.94353,604.92177 1006.88531,610.06981 L1006.88531,610.06981 Z" id="Path" fill="#000000" fill-rule="nonzero" opacity="0.25"></path>
            <path d="M980.07889,632.45555 C981.15347,637.89746 994.12307,651.73266 994.12307,651.73266 C994.12307,651.73266 1000.86036,634.00606 999.78578,628.56415 C999.090648,625.043853 996.570264,622.161813 993.174032,621.003666 C989.7778,619.84552 986.021688,620.587216 983.320587,622.949366 C980.619486,625.311516 979.383758,628.935253 980.07889,632.45555 L980.07889,632.45555 Z" id="Path" fill="#000000" fill-rule="nonzero" opacity="0.25"></path>
            <path d="M961.29435,681.49204 C964.96909,685.6472 983.14901,691.04296 983.14901,691.04296 C983.14901,691.04296 980.01625,672.33977 976.3415,668.18461 C973.964636,665.495639 970.3336,664.279251 966.816571,664.993784 C963.299543,665.708317 960.43103,668.245178 959.291895,671.648473 C958.152759,675.051768 958.916123,678.804274 961.29435,681.49204 L961.29435,681.49204 Z" id="Path" fill="#000000" fill-rule="nonzero" opacity="0.25"></path>
            <path d="M955.43655,721.79455 C958.35625,726.51095 975.363006,734.90138 975.363006,734.90138 C975.363006,734.90138 975.43584,715.93778 972.51614,711.22138 C970.628418,708.168232 967.254775,706.354638 963.666851,706.464204 C960.078926,706.57377 956.822231,708.589836 955.124323,711.75248 C953.426415,714.915125 953.545447,718.743495 955.43655,721.79455 L955.43655,721.79455 Z" id="Path" fill="#000000" fill-rule="nonzero" opacity="0.25"></path>
            <path d="M1013.31214,660.54588 C1008.18435,662.66128 989.48414,659.51101 989.48414,659.51101 C989.48414,659.51101 1000.52385,644.09193 1005.65164,641.97653 C1010.77942,639.861133 1016.65118,642.303156 1018.76658,647.43094 C1020.88198,652.558724 1018.43995,658.430483 1013.31217,660.54588 L1013.31214,660.54588 Z" id="Path" fill="#000000" fill-rule="nonzero" opacity="0.25"></path>
            <path d="M1005.86343,707.59307 C1000.33761,708.07725 983.4367,699.47595 983.4367,699.47595 C983.4367,699.47595 998.58423,688.0665 1004.11005,687.58231 C1007.68666,687.265384 1011.1604,688.88189 1013.22125,691.822211 C1015.28209,694.762531 1015.61653,698.57935 1014.09843,701.833263 C1012.58034,705.087177 1009.44065,707.283164 1005.86343,707.59307 L1005.86343,707.59307 Z" id="Path" fill="#000000" fill-rule="nonzero" opacity="0.25"></path>
            <path d="M992.349,752.32701 C986.98448,753.73801 968.87309,748.11659 968.87309,748.11659 C968.87309,748.11659 981.87465,734.31141 987.23917,732.90037 C992.603689,731.489329 998.096364,734.694256 999.507405,740.058775 C1000.91845,745.423294 997.713519,750.915969 992.349,752.32701 Z" id="Path" fill="#000000" fill-rule="nonzero" opacity="0.25"></path>
            <path d="M956.73313,766.63372 C956.73313,766.63372 998.41993,744.53153 1011.18001,709.92618 C1016.43911,695.37693 1026.27594,682.926271 1039.21358,674.44357 C1045.38695,670.464449 1051.91195,667.059363 1058.70673,664.27102" id="Path" stroke="#535461" stroke-width="2"></path>
            <path d="M1066.87816,642.51104 C1062.91116,646.38813 1058.42734,664.81417 1058.42734,664.81417 C1058.42734,664.81417 1076.95134,660.75398 1080.91834,656.87689 C1084.88536,652.999799 1084.95826,646.64089 1081.08117,642.67387 C1077.20408,638.70685 1070.84517,638.633949 1066.87815,642.51104 L1066.87816,642.51104 Z" id="Path" fill="#F9A826" fill-rule="nonzero"></path>
            <path d="M1033.3,652.1139 C1032.07722,657.52444 1038.32792,675.42841 1038.32792,675.42841 C1038.32792,675.42841 1051.67049,661.95254 1052.89328,656.54201 C1053.68429,653.042008 1052.54798,649.385876 1049.91239,646.950843 C1047.2768,644.515811 1043.54234,643.671818 1040.11575,644.736788 C1036.68915,645.801759 1034.09101,648.613898 1033.3,652.1139 L1033.3,652.1139 Z" id="Path" fill="#F9A826" fill-rule="nonzero"></path>
            <path d="M996.25615,689.33202 C997.93191,694.61983 1012.36582,706.91964 1012.36582,706.91964 C1012.36582,706.91964 1017.08076,688.55139 1015.40501,683.26358 C1014.32099,679.842966 1011.49443,677.260507 1007.99008,676.48899 C1004.48573,675.717474 1000.83598,676.874112 998.415653,679.52321 C995.995326,682.172309 995.172128,685.911406 996.25615,689.33202 Z" id="Path" fill="#F9A826" fill-rule="nonzero"></path>
            <path d="M974.56934,723.80357 C975.32739,729.29852 987.47513,743.86066 987.47513,743.86066 C987.47513,743.86066 995.22635,726.55338 994.46831,721.05844 C993.97794,717.503826 991.628455,714.480836 988.304884,713.128202 C984.981313,711.775568 981.188584,712.298787 978.355383,714.500767 C975.522182,716.702747 974.078939,720.248956 974.56931,723.80357 L974.56934,723.80357 Z" id="Path" fill="#F9A826" fill-rule="nonzero"></path>
            <path d="M1052.29962,691.26147 C1046.75449,691.11747 1030.93496,680.6597 1030.93496,680.6597 C1030.93496,680.6597 1047.27583,671.03685 1052.82096,671.18081 C1058.36608,671.324771 1062.74459,675.936684 1062.60062,681.481805 C1062.45666,687.026926 1057.84475,691.405431 1052.29963,691.26147 L1052.29962,691.26147 Z" id="Path" fill="#F9A826" fill-rule="nonzero"></path>
            <path d="M1026.42527,731.25446 C1021.17727,729.45792 1009.21159,714.74581 1009.21159,714.74581 C1009.21159,714.74581 1027.68311,710.45322 1032.93111,712.24981 C1038.17911,714.046348 1040.97708,719.757077 1039.18054,725.00508 C1037.384,730.253083 1031.67327,733.051048 1026.42527,731.25451 L1026.42527,731.25446 Z" id="Path" fill="#F9A826" fill-rule="nonzero"></path>
            <path d="M995.94291,766.67472 C990.46679,765.79089 976.18697,753.3125 976.18697,753.3125 C976.18697,753.3125 993.66741,745.96009 999.14353,746.84392 C1004.61965,747.727747 1008.34245,752.883506 1007.45862,758.35963 C1006.57479,763.835754 1001.41903,767.558547 995.94291,766.67472 Z" id="Path" fill="#F9A826" fill-rule="nonzero"></path>
            <path d="M637.139,95.07758 C581.90206,93.15976 529.29227,75.32758 479.05575,55.81791 C428.81923,36.30824 379.05863,14.69314 325.14447,4.35528 C290.46788,-2.29384 250.81207,-3.2346 222.87136,15.35748 C195.98404,33.24861 187.29616,64.13248 182.62519,92.78877 C179.11092,114.34877 177.04481,137.03994 186.67392,157.2239 C193.35907,171.2369 205.2293,183.016 213.43768,196.43801 C242.00016,243.1422 221.81194,300.73366 190.85874,346.33617 C176.33919,367.72743 159.49784,388.13469 148.29369,410.90617 C137.08954,433.67765 131.90645,459.77038 141.70906,482.9993 C151.42524,506.0234 174.57989,523.31753 199.6618,535.48113 C250.60407,560.18585 310.6342,567.25661 369.17151,571.2612 C498.75062,580.12581 629.02178,576.28788 758.94492,572.44402 C807.02643,571.0215 855.31982,569.57994 902.62016,562.14507 C928.88687,558.01636 956.00551,551.46323 975.0748,535.64365 C999.28311,515.5608 1005.28355,481.55453 989.06217,456.37302 C961.85262,414.13384 886.6213,403.64232 867.60336,358.31248 C857.13503,333.36088 867.88544,305.56766 883.09843,282.42689 C915.73374,232.7847 970.43497,189.23362 973.31626,132.49183 C975.29517,93.52065 948.99926,54.49213 908.33976,36.05333 C865.7205,16.72579 806.62237,19.157 775.1811,51.15059 C742.80547,84.09494 685.90975,96.77089 637.139,95.07758 Z" id="Path" fill="#F9A826" fill-rule="nonzero" opacity="0.1"></path>
            <ellipse id="Oval" fill="#FBD56F" fill-rule="nonzero" cx="542.56303" cy="664.53343" rx="37.55691" ry="39.86537"></ellipse>
            <ellipse id="Oval" fill="#000000" fill-rule="nonzero" opacity="0.1" cx="542.56303" cy="664.53343" rx="37.55691" ry="39.86537"></ellipse>
            <ellipse id="Oval" fill="#FBD56F" fill-rule="nonzero" cx="549.04466" cy="665.4213" rx="37.55691" ry="38.9775"></ellipse>
            <path d="M564.25656,700.74379 L560.34993,698.56851 C560.34993,698.56851 558.52266,706.19387 559.11998,711.62777 C559.240561,712.756743 560.052857,713.690503 561.15426,713.96624 C570.14126,716.19805 612.97474,725.7067 642.4295,712.3139 C643.298449,711.917373 643.893584,711.091652 643.99496,710.1419 C644.35624,706.80231 643.07724,699.91112 642.56671,698.56854 C641.468,695.67903 564.25656,700.74379 564.25656,700.74379 Z" id="Path" fill="#FBD56F" fill-rule="nonzero"></path>
            <path d="M564.25656,700.74379 L560.34993,698.56851 C560.34993,698.56851 558.52266,706.19387 559.11998,711.62777 C559.240561,712.756743 560.052857,713.690503 561.15426,713.96624 C570.14126,716.19805 612.97474,725.7067 642.4295,712.3139 C643.298449,711.917373 643.893584,711.091652 643.99496,710.1419 C644.35624,706.80231 643.07724,699.91112 642.56671,698.56854 C641.468,695.67903 564.25656,700.74379 564.25656,700.74379 Z" id="Path" fill="#000000" fill-rule="nonzero" opacity="0.1"></path>
            <ellipse id="Oval" fill="#FBD56F" fill-rule="nonzero" cx="601.45832" cy="698.56851" rx="41.10839" ry="9.26638"></ellipse>
            <path d="M579.96224,687.0721 L576.05561,684.89682 C576.05561,684.89682 574.22833,692.52218 574.82561,697.95608 C574.946189,699.08506 575.758489,700.018825 576.8599,700.29456 C585.8469,702.52636 628.68038,712.03501 658.13513,698.64221 C659.004081,698.245684 659.59922,697.419963 659.7006,696.47021 C660.06187,693.13062 658.78288,686.23943 658.27235,684.89685 C657.17365,682.00734 579.96224,687.0721 579.96224,687.0721 Z" id="Path" fill="#FBD56F" fill-rule="nonzero"></path>
            <path d="M579.96224,687.0721 L576.05561,684.89682 C576.05561,684.89682 574.22833,692.52218 574.82561,697.95608 C574.946189,699.08506 575.758489,700.018825 576.8599,700.29456 C585.8469,702.52636 628.68038,712.03501 658.13513,698.64221 C659.004081,698.245684 659.59922,697.419963 659.7006,696.47021 C660.06187,693.13062 658.78288,686.23943 658.27235,684.89685 C657.17365,682.00734 579.96224,687.0721 579.96224,687.0721 Z" id="Path" fill="#000000" fill-rule="nonzero" opacity="0.1"></path>
            <ellipse id="Oval" fill="#FBD56F" fill-rule="nonzero" cx="617.164" cy="684.89682" rx="41.10839" ry="9.26638"></ellipse>
            <path d="M593.84687,669.10331 L589.94024,666.92803 C589.94024,666.92803 588.11296,674.55339 588.71024,679.98729 C588.830823,681.116266 589.643123,682.050026 590.74453,682.32576 C599.73153,684.55757 642.565,694.06622 672.01976,680.67342 C672.888711,680.276894 673.48385,679.451173 673.58523,678.50142 C673.9465,675.16184 672.6675,668.27065 672.15698,666.92807 C671.05828,664.03855 593.84687,669.10331 593.84687,669.10331 Z" id="Path" fill="#FBD56F" fill-rule="nonzero"></path>
            <path d="M593.84687,669.10331 L589.94024,666.92803 C589.94024,666.92803 588.11296,674.55339 588.71024,679.98729 C588.830823,681.116266 589.643123,682.050026 590.74453,682.32576 C599.73153,684.55757 642.565,694.06622 672.01976,680.67342 C672.888711,680.276894 673.48385,679.451173 673.58523,678.50142 C673.9465,675.16184 672.6675,668.27065 672.15698,666.92807 C671.05828,664.03855 593.84687,669.10331 593.84687,669.10331 Z" id="Path" fill="#000000" fill-rule="nonzero" opacity="0.1"></path>
            <ellipse id="Oval" fill="#FBD56F" fill-rule="nonzero" cx="631.04863" cy="666.92803" rx="41.10839" ry="9.26638"></ellipse>
            <path d="M578.47062,650.39796 L574.564,648.22272 C574.564,648.22272 572.73673,655.84808 573.334,661.28198 C573.454579,662.41096 574.266879,663.344725 575.36829,663.62046 C584.35529,665.85227 627.18876,675.36091 656.64352,661.96812 C657.512469,661.571591 658.107606,660.745872 658.20899,659.79612 C658.57026,656.45653 657.29126,649.56535 656.78074,648.22276 C655.682,645.3332 578.47062,650.39796 578.47062,650.39796 Z" id="Path" fill="#FBD56F" fill-rule="nonzero"></path>
            <path d="M578.47062,650.39796 L574.564,648.22272 C574.564,648.22272 572.73673,655.84808 573.334,661.28198 C573.454579,662.41096 574.266879,663.344725 575.36829,663.62046 C584.35529,665.85227 627.18876,675.36091 656.64352,661.96812 C657.512469,661.571591 658.107606,660.745872 658.20899,659.79612 C658.57026,656.45653 657.29126,649.56535 656.78074,648.22276 C655.682,645.3332 578.47062,650.39796 578.47062,650.39796 Z" id="Path" fill="#000000" fill-rule="nonzero" opacity="0.1"></path>
            <ellipse id="Oval" fill="#FBD56F" fill-rule="nonzero" cx="615.67239" cy="648.22268" rx="41.10839" ry="9.26638"></ellipse>
            <path d="M613.06171,635.38672 L609.15508,633.21144 C609.15508,633.21144 607.32781,640.8368 607.92508,646.2707 C608.045663,647.399676 608.857963,648.333436 609.95937,648.60917 C618.94637,650.84098 661.77984,660.34963 691.2346,646.95683 C692.103551,646.560306 692.698688,645.734583 692.80006,644.78483 C693.16134,641.44525 691.88234,634.55406 691.37181,633.21148 C690.27312,630.32193 613.06171,635.38672 613.06171,635.38672 Z" id="Path" fill="#FBD56F" fill-rule="nonzero"></path>
            <path d="M613.06171,635.38672 L609.15508,633.21144 C609.15508,633.21144 607.32781,640.8368 607.92508,646.2707 C608.045663,647.399676 608.857963,648.333436 609.95937,648.60917 C618.94637,650.84098 661.77984,660.34963 691.2346,646.95683 C692.103551,646.560306 692.698688,645.734583 692.80006,644.78483 C693.16134,641.44525 691.88234,634.55406 691.37181,633.21148 C690.27312,630.32193 613.06171,635.38672 613.06171,635.38672 Z" id="Path" fill="#000000" fill-rule="nonzero" opacity="0.1"></path>
            <ellipse id="Oval" fill="#FBD56F" fill-rule="nonzero" cx="650.26347" cy="633.21142" rx="41.10839" ry="9.26638"></ellipse>
            <path d="M589.69041,625.29716 L585.78378,623.12188 C585.78378,623.12188 583.9565,630.74724 584.55378,636.18114 C584.674363,637.310116 585.486663,638.243876 586.58807,638.51961 C595.57507,640.75142 638.40854,650.26007 667.8633,636.86727 C668.732251,636.470744 669.32739,635.645023 669.42877,634.69527 C669.79004,631.35569 668.51104,624.4645 668.00052,623.12192 C666.90182,620.2324 589.69041,625.29716 589.69041,625.29716 Z" id="Path" fill="#FBD56F" fill-rule="nonzero"></path>
            <path d="M589.69041,625.29716 L585.78378,623.12188 C585.78378,623.12188 583.9565,630.74724 584.55378,636.18114 C584.674363,637.310116 585.486663,638.243876 586.58807,638.51961 C595.57507,640.75142 638.40854,650.26007 667.8633,636.86727 C668.732251,636.470744 669.32739,635.645023 669.42877,634.69527 C669.79004,631.35569 668.51104,624.4645 668.00052,623.12192 C666.90182,620.2324 589.69041,625.29716 589.69041,625.29716 Z" id="Path" fill="#000000" fill-rule="nonzero" opacity="0.1"></path>
            <ellipse id="Oval" fill="#FBD56F" fill-rule="nonzero" cx="626.89217" cy="623.12188" rx="41.10839" ry="9.26638"></ellipse>
            <path d="M605.29411,605.81909 L601.38748,603.64381 C601.38748,603.64381 599.56021,611.26917 600.15748,616.70307 C600.278061,617.832043 601.090357,618.765803 602.19176,619.04154 C611.17876,621.27335 654.01224,630.782 683.467,617.3892 C684.335949,616.992673 684.931084,616.166952 685.03246,615.2172 C685.39374,611.87762 684.11474,604.98643 683.60421,603.64385 C682.50552,600.75433 605.29411,605.81909 605.29411,605.81909 Z" id="Path" fill="#FBD56F" fill-rule="nonzero"></path>
            <path d="M605.29411,605.81909 L601.38748,603.64381 C601.38748,603.64381 599.56021,611.26917 600.15748,616.70307 C600.278061,617.832043 601.090357,618.765803 602.19176,619.04154 C611.17876,621.27335 654.01224,630.782 683.467,617.3892 C684.335949,616.992673 684.931084,616.166952 685.03246,615.2172 C685.39374,611.87762 684.11474,604.98643 683.60421,603.64385 C682.50552,600.75433 605.29411,605.81909 605.29411,605.81909 Z" id="Path" fill="#000000" fill-rule="nonzero" opacity="0.1"></path>
            <ellipse id="Oval" fill="#FBD56F" fill-rule="nonzero" cx="642.49587" cy="603.64381" rx="41.10839" ry="9.26638"></ellipse>
            <path d="M612.99087,582.6991 L609.08424,580.52382 C609.08424,580.52382 607.25697,588.14918 607.85424,593.58308 C607.974821,594.712053 608.787117,595.645813 609.88852,595.92155 C618.87552,598.15336 661.709,607.66201 691.16376,594.26921 C692.032709,593.872683 692.627844,593.046962 692.72922,592.09721 C693.0905,588.75763 691.8115,581.86644 691.30097,580.52386 C690.20228,577.63434 612.99087,582.6991 612.99087,582.6991 Z" id="Path" fill="#FBD56F" fill-rule="nonzero"></path>
            <path d="M612.99087,582.6991 L609.08424,580.52382 C609.08424,580.52382 607.25697,588.14918 607.85424,593.58308 C607.974821,594.712053 608.787117,595.645813 609.88852,595.92155 C618.87552,598.15336 661.709,607.66201 691.16376,594.26921 C692.032709,593.872683 692.627844,593.046962 692.72922,592.09721 C693.0905,588.75763 691.8115,581.86644 691.30097,580.52386 C690.20228,577.63434 612.99087,582.6991 612.99087,582.6991 Z" id="Path" fill="#000000" fill-rule="nonzero" opacity="0.1"></path>
            <ellipse id="Oval" fill="#FBD56F" fill-rule="nonzero" cx="650.19263" cy="580.52382" rx="41.10839" ry="9.26638"></ellipse>
            <path d="M682.38554,706.10596 L678.47891,703.93068 C678.47891,703.93068 676.65164,711.55604 677.24891,716.98994 C677.369493,718.118916 678.181793,719.052676 679.2832,719.32841 C688.2702,721.56022 731.10367,731.06887 760.55843,717.67607 C761.427381,717.279544 762.02252,716.453823 762.1239,715.50407 C762.48517,712.16449 761.20617,705.2733 760.69565,703.93072 C759.597,701.0412 682.38554,706.10596 682.38554,706.10596 Z" id="Path" fill="#FBD56F" fill-rule="nonzero"></path>
            <path d="M682.38554,706.10596 L678.47891,703.93068 C678.47891,703.93068 676.65164,711.55604 677.24891,716.98994 C677.369493,718.118916 678.181793,719.052676 679.2832,719.32841 C688.2702,721.56022 731.10367,731.06887 760.55843,717.67607 C761.427381,717.279544 762.02252,716.453823 762.1239,715.50407 C762.48517,712.16449 761.20617,705.2733 760.69565,703.93072 C759.597,701.0412 682.38554,706.10596 682.38554,706.10596 Z" id="Path" fill="#000000" fill-rule="nonzero" opacity="0.1"></path>
            <ellipse id="Oval" fill="#FBD56F" fill-rule="nonzero" cx="719.58731" cy="703.93068" rx="41.10839" ry="9.26638"></ellipse>
            <path d="M696.27017,688.13717 L692.36354,685.96188 C692.36354,685.96188 690.53627,693.58724 691.13359,699.02114 C691.254169,700.15012 692.066469,701.083885 693.16788,701.35962 C702.15488,703.59143 744.98835,713.10007 774.44311,699.70728 C775.312059,699.310753 775.907194,698.485032 776.00857,697.53528 C776.36985,694.19569 775.09085,687.30451 774.58032,685.96192 C773.48158,683.0724 696.27017,688.13717 696.27017,688.13717 Z" id="Path" fill="#FBD56F" fill-rule="nonzero"></path>
            <path d="M696.27017,688.13717 L692.36354,685.96188 C692.36354,685.96188 690.53627,693.58724 691.13359,699.02114 C691.254169,700.15012 692.066469,701.083885 693.16788,701.35962 C702.15488,703.59143 744.98835,713.10007 774.44311,699.70728 C775.312059,699.310753 775.907194,698.485032 776.00857,697.53528 C776.36985,694.19569 775.09085,687.30451 774.58032,685.96192 C773.48158,683.0724 696.27017,688.13717 696.27017,688.13717 Z" id="Path" fill="#000000" fill-rule="nonzero" opacity="0.1"></path>
            <ellipse id="Oval" fill="#FBD56F" fill-rule="nonzero" cx="733.47193" cy="685.96189" rx="41.10839" ry="9.26638"></ellipse>
            <path d="M680.89393,669.43182 L676.9873,667.25654 C676.9873,667.25654 675.16003,674.8819 675.7573,680.3158 C675.877881,681.444773 676.690177,682.378533 677.79158,682.65427 C686.77858,684.88608 729.61206,694.39473 759.06682,681.00193 C759.935769,680.605403 760.530904,679.779682 760.63228,678.82993 C760.99356,675.49035 759.71456,668.59916 759.20403,667.25658 C758.10534,664.36706 680.89393,669.43182 680.89393,669.43182 Z" id="Path" fill="#FBD56F" fill-rule="nonzero"></path>
            <path d="M680.89393,669.43182 L676.9873,667.25654 C676.9873,667.25654 675.16003,674.8819 675.7573,680.3158 C675.877881,681.444773 676.690177,682.378533 677.79158,682.65427 C686.77858,684.88608 729.61206,694.39473 759.06682,681.00193 C759.935769,680.605403 760.530904,679.779682 760.63228,678.82993 C760.99356,675.49035 759.71456,668.59916 759.20403,667.25658 C758.10534,664.36706 680.89393,669.43182 680.89393,669.43182 Z" id="Path" fill="#000000" fill-rule="nonzero" opacity="0.1"></path>
            <ellipse id="Oval" fill="#FBD56F" fill-rule="nonzero" cx="718.09569" cy="667.25654" rx="41.10839" ry="9.26638"></ellipse>
            <path d="M715.485,654.42055 L711.57837,652.24527 C711.57837,652.24527 709.75109,659.87063 710.34837,665.30453 C710.468949,666.43351 711.281249,667.367275 712.38266,667.64301 C721.36966,669.87482 764.20314,679.38346 793.65789,665.99067 C794.526839,665.594141 795.121976,664.768422 795.22336,663.81867 C795.58463,660.47908 794.30564,653.5879 793.79511,652.24531 C792.69643,649.35579 715.485,654.42055 715.485,654.42055 Z" id="Path" fill="#FBD56F" fill-rule="nonzero"></path>
            <path d="M715.485,654.42055 L711.57837,652.24527 C711.57837,652.24527 709.75109,659.87063 710.34837,665.30453 C710.468949,666.43351 711.281249,667.367275 712.38266,667.64301 C721.36966,669.87482 764.20314,679.38346 793.65789,665.99067 C794.526839,665.594141 795.121976,664.768422 795.22336,663.81867 C795.58463,660.47908 794.30564,653.5879 793.79511,652.24531 C792.69643,649.35579 715.485,654.42055 715.485,654.42055 Z" id="Path" fill="#000000" fill-rule="nonzero" opacity="0.1"></path>
            <ellipse id="Oval" fill="#FBD56F" fill-rule="nonzero" cx="752.68678" cy="652.24527" rx="41.10839" ry="9.26638"></ellipse>
            <path d="M692.11371,644.33101 L688.20708,642.15573 C688.20708,642.15573 686.37981,649.78109 686.97708,655.21499 C687.097659,656.34397 687.909959,657.277735 689.01137,657.55347 C697.99837,659.78528 740.83184,669.29392 770.2866,655.90113 C771.155549,655.504601 771.750686,654.678882 771.85207,653.72913 C772.21334,650.38954 770.93434,643.49836 770.42382,642.15577 C769.32512,639.26625 692.11371,644.33101 692.11371,644.33101 Z" id="Path" fill="#FBD56F" fill-rule="nonzero"></path>
            <path d="M692.11371,644.33101 L688.20708,642.15573 C688.20708,642.15573 686.37981,649.78109 686.97708,655.21499 C687.097659,656.34397 687.909959,657.277735 689.01137,657.55347 C697.99837,659.78528 740.83184,669.29392 770.2866,655.90113 C771.155549,655.504601 771.750686,654.678882 771.85207,653.72913 C772.21334,650.38954 770.93434,643.49836 770.42382,642.15577 C769.32512,639.26625 692.11371,644.33101 692.11371,644.33101 Z" id="Path" fill="#000000" fill-rule="nonzero" opacity="0.1"></path>
            <ellipse id="Oval" fill="#FBD56F" fill-rule="nonzero" cx="729.31548" cy="642.15573" rx="41.10839" ry="9.26638"></ellipse>
            <path d="M707.71742,624.85295 L703.81079,622.67766 C703.81079,622.67766 701.98351,630.30303 702.58079,635.73693 C702.701373,636.865906 703.513673,637.799666 704.61508,638.0754 C713.60208,640.30721 756.43555,649.81585 785.89031,636.42306 C786.759259,636.026531 787.354396,635.200812 787.45578,634.25106 C787.81705,630.91148 786.53805,624.02029 786.02753,622.6777 C784.92883,619.78818 707.71742,624.85295 707.71742,624.85295 Z" id="Path" fill="#FBD56F" fill-rule="nonzero"></path>
            <path d="M707.71742,624.85295 L703.81079,622.67766 C703.81079,622.67766 701.98351,630.30303 702.58079,635.73693 C702.701373,636.865906 703.513673,637.799666 704.61508,638.0754 C713.60208,640.30721 756.43555,649.81585 785.89031,636.42306 C786.759259,636.026531 787.354396,635.200812 787.45578,634.25106 C787.81705,630.91148 786.53805,624.02029 786.02753,622.6777 C784.92883,619.78818 707.71742,624.85295 707.71742,624.85295 Z" id="Path" fill="#000000" fill-rule="nonzero" opacity="0.1"></path>
            <ellipse id="Oval" fill="#FBD56F" fill-rule="nonzero" cx="744.91918" cy="622.67767" rx="41.10839" ry="9.26638"></ellipse>
            <path d="M715.41418,601.73296 L711.50755,599.55768 C711.50755,599.55768 709.68027,607.18304 710.27755,612.61694 C710.398133,613.745916 711.210433,614.679676 712.31184,614.95541 C721.29884,617.18722 764.13232,626.69587 793.58707,613.30307 C794.456021,612.906544 795.05116,612.080823 795.15254,611.13107 C795.51381,607.79149 794.23482,600.9003 793.72429,599.55772 C792.62559,596.6682 715.41418,601.73296 715.41418,601.73296 Z" id="Path" fill="#FBD56F" fill-rule="nonzero"></path>
            <path d="M715.41418,601.73296 L711.50755,599.55768 C711.50755,599.55768 709.68027,607.18304 710.27755,612.61694 C710.398133,613.745916 711.210433,614.679676 712.31184,614.95541 C721.29884,617.18722 764.13232,626.69587 793.58707,613.30307 C794.456021,612.906544 795.05116,612.080823 795.15254,611.13107 C795.51381,607.79149 794.23482,600.9003 793.72429,599.55772 C792.62559,596.6682 715.41418,601.73296 715.41418,601.73296 Z" id="Path" fill="#000000" fill-rule="nonzero" opacity="0.1"></path>
            <ellipse id="Oval" fill="#FBD56F" fill-rule="nonzero" cx="752.61594" cy="599.55768" rx="41.10839" ry="9.26638"></ellipse>
            <path d="M963.19119,760.64372 C957.46889,760.44202 957.26455,758.22372 949.90752,754.39224 C945.75483,752.23041 939.4482,745.95068 934.74773,740.89703 C934.37135,740.49209 934.006827,740.096757 933.65416,739.71103 C934.89705,739.68382 935.60202,739.67096 935.60202,739.67096 C935.60202,739.67096 933.76282,723.53813 935.39768,719.70656 C937.03254,715.87499 935.80648,693.08735 935.80648,693.08735 C935.80648,693.08735 936.82819,675.7445 934.98887,671.71129 C933.14955,667.67808 935.60202,641.86543 935.60202,641.86543 C935.60202,641.86543 937.23687,626.53921 937.64568,595.28181 C938.05449,564.02441 919.66168,563.01603 919.66168,563.01603 C919.66168,563.01603 917.20934,562.82646 913.48592,562.47156 C913.12838,562.43771 912.75014,562.40108 912.37015,562.36422 C914.78157,557.31622 916.18751,553.53796 916.18751,553.53796 C916.18751,553.53796 913.12214,524.29714 912.30451,519.25561 C911.48715,514.21415 906.58246,493.44307 906.58246,493.44307 C906.58246,493.44307 903.10816,484.56998 901.06463,478.3185 C899.0211,472.06702 892.89011,464.80722 892.89011,464.80722 C892.89011,464.80722 881.85444,443.02783 878.78895,439.80122 C877.36667,438.30487 875.37204,436.41737 873.64312,434.82422 C873.33137,434.53678 873.03347,434.26405 872.74392,433.99988 C873.206425,431.727231 873.451379,429.415689 873.47546,427.09658 C873.47546,427.09658 862.03111,415.80358 861.21374,412.98033 C860.39637,410.15708 849.56505,399.67072 849.56505,399.67072 C849.56505,399.67072 843.43405,388.37772 836.48572,388.17601 C833.202756,387.989806 829.909816,388.089629 826.64416,388.47435 C828.07081,383.19229 829.75868,377.65891 831.2744,372.91035 C831.44319,372.38114 831.60886,371.86528 831.77278,371.357 C837.325334,367.602086 841.682773,362.331597 844.327,356.17219 C844.472,355.84462 844.60295,355.51373 844.73431,355.18277 C844.80791,355.18462 844.88089,355.19662 844.9545,355.19564 C845.242695,355.192286 845.530178,355.166229 845.81428,355.11771 C848.1017,354.72484 850.03782,352.14171 848.98318,350.10315 C849.12199,350.33754 849.377323,350.477854 849.6496,350.46937 C850.41195,350.44401 851.34221,349.34109 851.52086,348.37075 C851.55179,348.20247 851.56864,348.03216 851.59471,347.86315 C851.62714,347.65258 851.66182,347.44245 851.68677,347.2309 C851.71023,347.03209 851.7252,346.83279 851.74191,346.63331 C851.75938,346.42755 851.77547,346.22197 851.78583,346.01571 C851.79556,345.82271 851.80155,345.62998 851.80491,345.43671 C851.80903,345.21451 851.80778,344.99256 851.80379,344.77037 C851.80042,344.59249 851.7983,344.41491 851.78979,344.23722 C851.77706,343.96689 851.75461,343.69736 851.72979,343.42783 C851.71969,343.31723 851.71744,343.20594 851.70522,343.09552 L851.70297,343.11146 C851.58348,342.009551 851.363078,340.920939 851.04454,339.85933 C849.91517,336.11092 847.54604,332.39358 848.45896,328.58818 C848.46896,328.54718 848.48703,328.50982 848.49764,328.46918 L848.49888,328.47656 C849.25961,325.52344 851.815,323.37792 853.37862,320.73944 C853.5277,320.48776 853.65868,320.22808 853.7878,319.96773 C853.81138,319.92009 853.8397,319.87442 853.86265,319.82647 C853.95671,319.63031 854.0363,319.42879 854.11914,319.22838 C854.17253,319.09956 854.23104,318.9727 854.27982,318.84228 C854.34556,318.66649 854.40008,318.48738 854.45759,318.30894 C854.51011,318.14651 854.56524,317.98494 854.61115,317.82054 C854.65507,317.66242 854.69062,317.50245 854.72842,317.34273 C854.7742,317.15032 854.81949,316.95816 854.85642,316.76379 C854.88287,316.62444 854.90342,316.48429 854.92528,316.34407 C854.95972,316.12372 854.99115,315.90325 855.01461,315.68124 C855.02733,315.56103 855.03661,315.44076 855.04592,315.32012 C855.0655,315.07251 855.07935,314.82489 855.08546,314.57612 C855.08796,314.47654 855.08896,314.37712 855.08921,314.27742 C855.090203,314.005607 855.0833,313.733843 855.0685,313.46213 C855.06401,313.38045 855.05977,313.29913 855.05378,313.21746 C855.03332,312.92781 855.00313,312.6392 854.9652,312.35083 C854.95972,312.30917 854.9582,312.26719 854.9522,312.22552 L854.95008,312.23697 C854.603112,309.702875 853.593441,307.305249 852.02308,305.28634 C848.394995,300.967734 842.944626,298.61036 837.31302,298.924 C835.77739,299.097305 834.228864,299.125787 832.6879,299.00907 C830.12215,298.63307 827.95237,297.00333 825.90759,295.42838 C820.201763,291.033193 814.495847,286.638007 808.78984,282.24282 C806.880742,280.583519 804.689139,279.280597 802.31941,278.39611 C799.90041,277.65579 797.00041,277.91122 795.20976,279.67852 C792.00493,282.8414 794.0421,288.28436 792.75542,292.573 C791.6409,296.28756 788.05333,298.80484 784.33914,300.05955 C780.62495,301.31426 776.65077,301.58963 772.83429,302.49792 C771.698914,302.681933 770.634839,303.170874 769.7557,303.91253 C768.767351,305.11232 768.287276,306.650992 768.418,308.19994 C768.394495,311.998079 769.307163,315.743503 771.07531,319.10506 C771.79699,320.47461 772.67111,321.85826 773.43883,323.26155 C773.5022,323.37745 773.56383,323.49366 773.62545,323.6098 C773.71128,323.7708 773.79736,323.9318 773.87932,324.09346 C774.01218,324.355613 774.13876,324.618517 774.25906,324.88217 C774.31096,324.99604 774.35749,325.11046 774.40664,325.22457 C774.48698,325.411317 774.563243,325.59841 774.63543,325.78585 C774.68122,325.90526 774.72575,326.02473 774.76767,326.14444 C774.84501,326.3651 774.91367,326.58644 774.9765,326.8082 C775.385089,328.11243 775.423516,329.504496 775.0875,330.82928 C774.49893,332.9969 772.80656,334.66688 771.3143,336.36038 C770.096338,337.683337 769.229397,339.290472 768.79272,341.03488 L768.78561,341.07359 C768.70232,341.479159 768.686639,341.895706 768.7392,342.30639 C768.74656,342.35753 768.75267,342.40917 768.7629,342.45839 C768.782184,342.54993 768.807397,342.64012 768.83838,342.72839 C768.861609,342.792396 768.888315,342.855086 768.91838,342.91618 C768.949081,342.988081 768.984592,343.057833 769.02467,343.12496 C769.09803,343.237636 769.185294,343.34062 769.2844,343.43148 C769.330268,343.469499 769.378115,343.505065 769.42774,343.53803 C769.510257,343.59935 769.598051,343.653227 769.69009,343.69903 C769.74623,343.72667 769.80336,343.75295 769.86474,343.77615 C770.000593,343.826683 770.140709,343.864916 770.2834,343.89039 C770.32357,343.89778 770.35763,343.91046 770.3994,343.91639 C770.617424,343.944503 770.837459,343.953834 771.05708,343.94428 C771.12046,343.94218 771.18944,343.93437 771.25569,343.92957 C771.466144,343.913732 771.67566,343.887231 771.88343,343.85017 C771.95978,343.83681 772.03438,343.82475 772.11384,343.80831 C772.41512,343.74621 772.73098,343.6697 773.07829,343.56162 C774.225895,343.21493 775.342683,342.773408 776.41711,342.24162 C776.41586,342.36448 776.40775,342.48567 776.40775,342.60877 C776.40775,342.82056 776.40775,343.04239 776.42821,343.25419 C776.485392,347.208876 777.232423,351.123232 778.63567,354.82103 C780.8265,360.583788 784.503357,365.664134 789.29284,369.54614 C789.233707,369.894513 789.168753,370.24424 789.09798,370.59532 C788.11283,375.43121 786.05283,380.28316 784.78174,379.90807 C783.537884,379.630712 782.267233,379.491384 780.99283,379.49261 C780.60697,379.48116 780.2331,379.47599 779.87818,379.47383 L779.87693,379.47248 C778.722781,379.338918 777.557079,379.338918 776.40293,379.47248 C775.887088,379.507715 775.369517,379.436332 774.88247,379.26278 C771.580348,378.222215 768.070188,378.025293 764.6724,378.68999 C757.60554,380.13799 746.85605,382.78776 743.90907,385.95785 C739.41307,390.79774 732.87353,395.43592 725.51637,415.60202 C725.51637,415.60202 721.83786,427.90334 718.97671,429.51663 C719.607147,429.189875 720.255316,428.898536 720.9182,428.64397 C720.538023,429.310364 720.014512,429.883949 719.38552,430.32325 C720.422127,429.793468 721.498196,429.344741 722.60408,428.98109 C720.37079,442.1198 723.67708,479.70266 723.67708,479.70266 C723.67708,479.70266 721.0204,486.18336 724.49457,490.01486 C726.55932,492.29204 727.68107,495.84269 728.25517,498.35579 C728.09375,498.60753 727.926047,498.868277 727.75206,499.13803 L727.75206,499.1421 C725.91286,501.99354 723.45228,505.71216 721.83789,507.7611 C718.97674,511.39097 719.79423,522.88567 719.79423,522.88567 C719.79423,522.88567 719.18108,528.33053 717.13754,530.34711 C715.094,532.36369 715.50254,539.82518 715.50254,539.82518 L710.18917,559.3863 C710.18917,559.3863 705.28436,563.82284 705.28436,565.83941 C705.28436,567.85598 701.4015,573.50255 701.4015,573.50255 C701.4015,573.50255 695.47486,583.18226 701.4015,581.77067 C703.561712,581.138163 705.58914,580.118708 707.38515,578.7619 L707.38228,578.90679 C707.373547,579.26151 707.366353,579.621887 707.3607,579.98792 C707.19316,590.53075 708.34161,605.36499 716.11556,605.36499 C728.17306,605.36499 759.23628,619.68289 759.23628,619.68289 C765.5716,624.52277 774.15492,622.90948 774.15492,622.90948 C774.15492,622.90948 759.03192,638.03405 759.44062,644.28548 C759.84932,650.53691 750.85742,660.82165 750.85742,660.82165 L723.06391,715.06846 C723.219453,718.848064 723.889716,722.5888 725.05617,726.18727 C724.92417,726.30256 724.78717,726.41267 724.65797,726.53085 C713.97809,736.28719 713.05019,755.60229 713.05019,755.60229 L710.59785,765.48364 L747.792,781.81806 C747.792,781.81806 796.02174,782.82637 804.40072,780.60806 C812.7797,778.38975 810.94039,769.11342 799.90472,767.29842 C788.86905,765.48342 786.21237,760.64366 782.53385,758.42542 C780.05285,756.92907 771.2407,747.25742 765.77202,741.12695 C765.68831,741.03315 765.61284,740.94803 765.53075,740.85588 L766.79784,733.82278 C769.25018,732.61278 772.9287,720.51314 772.9287,720.51314 C772.9287,720.51314 772.9287,715.67331 775.38104,714.26166 C777.83338,712.85001 782.94254,698.33047 782.94254,698.33047 C782.94254,698.33047 793.9782,679.97931 793.36506,677.55939 C792.75192,675.13947 801.33536,662.83816 801.33536,662.83816 C801.33536,662.83816 815.845,648.72192 815.232,646.20112 C814.619,643.68032 826.88069,630.77412 826.88069,630.77412 C831.311116,627.391622 835.003833,623.139692 837.73235,618.27912 C838.83589,618.10167 840.02115,617.91212 841.27189,617.7024 C857.31854,615.07278 883.98389,610.31759 886.96347,608.99469 C891.05079,607.17976 890.23342,615.24617 888.59847,622.10263 C886.96352,628.95909 885.73747,661.82984 887.57664,666.06469 C889.41581,670.29954 888.59847,677.15605 888.59847,677.15605 L886.14612,714.06005 L887.78098,721.92482 C887.78098,721.92482 882.26314,726.36137 884.51114,728.98292 C886.75914,731.60447 884.71549,742.89754 884.71549,742.89754 C884.9086,742.82608 885.13739,742.75622 885.39425,742.68754 C885.1974,743.13027 885.01015,743.58513 884.84225,744.06319 C881.67459,753.09354 883.48946,767.90353 883.48946,767.90353 L883.48946,779.59981 C883.48946,779.59981 940.09806,780.60813 952.56424,780.60813 C965.03042,780.60813 982.19695,774.55829 983.21878,769.71846 C984.24061,764.87863 968.91324,760.84534 963.19119,760.64372 Z M802.18461,550.70551 L798.47603,551.01745 C799.704802,550.838783 800.943257,550.734613 802.18461,550.70551 L802.18461,550.70551 Z M824.79261,395.9172 C825.31182,393.58438 825.94206,391.0752 826.63679,388.50155 L824.79261,395.9172 Z M831.78537,556.3612 C828.249211,557.760732 824.313504,557.765067 820.77427,556.37333 L820.7497,556.3612 C820.7497,556.3612 820.95404,542.24495 822.58902,536.39681 C824.224,530.54867 826.47202,519.86064 826.47202,519.86064 C826.47202,519.86064 828.31121,505.13935 830.15041,498.48459 C831.98961,491.82983 839.14241,454.72417 842.82105,452.30419 C846.49969,449.88421 848.54311,454.11919 848.54311,454.11919 C848.54311,454.11919 849.09276,454.10799 850.01366,454.00593 C850.18644,454.392783 850.381593,454.80427 850.59912,455.24039 C854.96026,464.05298 867.75342,482.15006 867.75342,482.15006 C871.548483,484.491088 874.762769,487.662867 877.15411,491.42643 C880.62828,497.27457 881.65011,510.98755 881.65011,510.98755 C881.65011,510.98755 889.41582,541.43833 893.09446,545.67318 C894.93378,547.79063 894.11616,549.05303 892.84097,549.78308 C890.234946,551.209549 888.019965,553.255357 886.39137,555.74008 C885.86779,556.5707 885.31353,557.48318 884.75115,558.45531 C883.34497,558.12959 882.08586,557.79149 881.03696,557.43807 C871.02311,554.07434 837.30321,553.94127 831.78538,556.36118 L831.78537,556.3612 Z" id="Shape" fill="url(#linearGradient-1)" fill-rule="nonzero"></path>
            <path d="M882.14849,768.02183 L882.14849,779.62027 C882.14849,779.62027 937.54102,780.62014 949.73938,780.62014 C961.93774,780.62014 978.73547,774.62094 979.73538,769.82159 C980.73529,765.02224 965.73726,761.02278 960.13802,760.8228 C954.53878,760.62282 954.3388,758.42313 947.13977,754.62364 C943.07635,752.47993 936.90511,746.25277 932.30577,741.24143 C928.7583,737.37396 926.14264,734.22643 926.14264,734.22643 C926.14264,734.22643 896.34664,733.62651 887.74781,738.42586 C885.7681,739.5337 884.40026,741.70142 883.47241,744.38107 C880.37275,753.3358 882.14849,768.02183 882.14849,768.02183 Z" id="Path" fill="#434175" fill-rule="nonzero"></path>
            <path d="M883.47233,744.38103 C889.71944,742.2093 926.29454,741.36542 932.30569,741.24143 C928.75822,737.37396 926.14256,734.22643 926.14256,734.22643 C926.14256,734.22643 896.34656,733.62651 887.74773,738.42586 C885.768,739.53366 884.40018,741.70138 883.47233,744.38103 Z" id="Path" fill="#000000" fill-rule="nonzero" opacity="0.1"></path>
            <path d="M722.77,559.44994 C722.77,559.44994 723.92585,560.14984 726.0016,561.40168 C726.37752,561.62568 726.78147,561.87361 727.2134,562.13356 C728.52923,562.92947 730.109,563.87734 731.91276,564.96519 C757.04536,580.11114 825.60414,621.16962 829.35564,620.84167 C830.33949,620.75767 833.2951,620.31373 837.37458,619.64981 C838.45441,619.47381 839.61427,619.28587 840.83808,619.07789 C856.53996,616.47026 882.63244,611.75489 885.54808,610.44307 C889.54754,608.64331 888.74765,616.64223 887.14786,623.44132 C885.54807,630.24041 884.34824,662.83601 886.148,667.03544 C887.94776,671.23487 887.14786,678.03396 887.14786,678.03396 L884.74819,714.62903 L886.34797,722.42803 C886.34797,722.42803 880.9487,726.82743 883.1484,729.42703 C885.3481,732.02663 883.3484,743.22517 883.3484,743.22517 C889.74754,740.8255 933.14169,740.02561 933.14169,740.02561 C933.14169,740.02561 931.34194,724.02776 932.94169,720.22827 C934.54144,716.42878 933.34164,693.83183 933.34164,693.83183 C933.34164,693.83183 934.3415,676.63415 932.54175,672.63469 C930.742,668.63523 933.14166,643.03869 933.14166,643.03869 C933.14166,643.03869 934.74145,627.84074 935.1414,596.84492 C935.54135,565.8491 917.54377,564.84923 917.54377,564.84923 C917.54377,564.84923 915.14409,564.66123 911.50059,564.30929 C904.37359,563.6254 892.49514,562.31756 884.56022,560.5938 C882.934076,560.257818 881.327821,559.831887 879.74886,559.31797 C869.95018,555.98241 836.95463,555.85044 831.55535,558.25012 C828.098684,559.637799 824.240579,559.642096 820.78083,558.26212 L820.75683,558.25012 L816.55739,551.45104 L776.44678,554.87057 L772.1954,555.23451 L732.70868,558.60207 L729.99308,558.83402 L722.77,559.44994 Z" id="Path" fill="#565387" fill-rule="nonzero"></path>
            <path d="M883.5483,590.12581 C895.19873,595.80502 906.3172,575.67175 911.50054,564.30927 C904.37354,563.62538 892.49509,562.31754 884.56017,560.59378 C879.34086,569.35261 872.37783,584.68252 883.5483,590.12581 Z" id="Path" fill="#000000" fill-rule="nonzero" opacity="0.1"></path>
            <path d="M848.553,454.06414 C848.796562,455.439076 849.274088,456.762067 849.96482,457.9756 C854.23222,466.71444 866.75055,484.66002 866.75055,484.66002 C870.474049,486.989846 873.619484,490.135281 875.94931,493.85878 C879.34885,499.65799 880.34872,513.25616 880.34872,513.25616 C880.34872,513.25616 887.94772,543.45209 891.54721,547.65153 C893.34697,549.75124 892.54707,551.00308 891.29921,551.72698 C888.742343,553.147936 886.574792,555.176745 884.98805,557.63417 C879.74477,566.06504 871.37392,582.78678 883.14831,588.52602 C899.14616,596.32497 914.14413,555.45048 914.14413,555.45048 C914.14413,555.45048 911.14454,526.45438 910.34465,521.45506 C909.54476,516.45574 904.7454,495.85851 904.7454,495.85851 C904.7454,495.85851 901.34586,487.05969 899.34613,480.86051 C897.3464,474.66133 891.34721,467.46231 891.34721,467.46231 C891.34721,467.46231 880.5487,445.86524 877.54911,442.66572 C876.1573,441.18191 874.20556,439.31017 872.51375,437.73038 C870.55806,435.90262 868.95026,434.46683 868.95026,434.46683 C868.95026,434.46683 848.353,449.26478 848.553,454.06414 Z" id="Path" fill="#EE8E9E" fill-rule="nonzero"></path>
            <path d="M712.97128,765.62216 L749.36638,781.81997 C749.36638,781.81997 796.56002,782.81984 804.75891,780.62014 C812.9578,778.42044 811.15805,769.22167 800.35951,767.42191 C789.56097,765.62215 786.96131,760.8228 783.3618,758.6231 C780.9341,757.13929 772.31128,747.54859 766.96,741.46941 C764.38437,738.5418 762.5646,736.42609 762.5646,736.42609 C762.5646,736.42609 755.56554,717.8286 736.16816,722.02803 C732.628117,722.792933 729.364355,724.510555 726.72944,726.99535 C716.27884,736.67005 715.37096,755.82348 715.37096,755.82348 L712.97128,765.62216 Z" id="Path" fill="#434175" fill-rule="nonzero"></path>
            <path d="M727.21336,562.13356 C728.52919,562.92947 730.10896,563.87734 731.91272,564.96519 C757.04532,580.11114 825.6041,621.16962 829.3556,620.84167 C830.33945,620.75767 833.29506,620.31373 837.37454,619.64981 C838.45437,619.47381 839.61423,619.28587 840.83804,619.07789 C840.88604,619.00189 840.93004,618.92589 840.97404,618.84989 C842.987895,615.33263 844.527703,611.564463 845.55341,607.64341 C849.75284,591.64557 828.95564,579.44721 828.95564,579.44721 L824.55624,576.02768 C819.55691,567.60879 783.56176,559.64988 783.56176,559.64988 L778.92239,556.53428 L776.4467,554.87052 L775.79484,554.43457 L770.16357,550.65109 L741.96736,552.65082 L733.59252,558.03408 L732.7086,558.60202 L729.60106,560.60175 L727.21336,562.13356 Z" id="Path" fill="#000000" fill-rule="nonzero" opacity="0.1"></path>
            <path d="M726.72944,726.99535 C734.38444,753.47179 766.36409,744.82496 766.36409,744.82496 L766.96,741.46941 C764.38437,738.5418 762.5646,736.42609 762.5646,736.42609 C762.5646,736.42609 755.56554,717.8286 736.16816,722.02803 C732.628117,722.792933 729.364355,724.510555 726.72944,726.99535 Z" id="Path" fill="#000000" fill-rule="nonzero" opacity="0.1"></path>
            <path d="M718.37055,606.84355 C730.16896,606.84355 760.56487,621.04164 760.56487,621.04164 C766.76403,625.84099 775.16287,624.24121 775.16287,624.24121 C775.16287,624.24121 760.36487,639.23921 760.76481,645.43835 C761.16475,651.63749 752.36594,661.83614 752.36594,661.83614 L725.16961,715.62889 C727.16934,753.82375 766.36406,743.22517 766.36406,743.22517 L767.96384,734.22639 C770.36352,733.02655 773.96303,721.02817 773.96303,721.02817 C773.96303,721.02817 773.96303,716.22881 776.36271,714.829 C778.76239,713.42919 783.76171,699.03113 783.76171,699.03113 C783.76171,699.03113 794.56026,680.83358 793.96034,678.43391 C793.36042,676.03424 801.75929,663.83591 801.75929,663.83591 C801.75929,663.83591 815.95737,649.8378 815.35746,647.33814 C814.75755,644.83848 826.756,632.04016 826.756,632.04016 C831.101828,628.675686 834.715119,624.4595 837.37459,619.64981 C839.38844,616.132552 840.928245,612.364388 841.95395,608.44334 C845.33748,595.56106 832.50723,585.13847 827.38395,581.57496 C826.14408,580.71106 825.3562,580.24714 825.3562,580.24714 L820.95679,576.8276 C818.68512,572.99611 809.99826,569.2646 801.20345,566.33299 C794.86031,564.21729 788.45717,562.51752 784.36573,561.49766 C781.65808,560.82575 779.96231,560.4498 779.96231,560.4498 L775.32295,557.33421 L773.69119,556.23836 L772.19539,555.23449 L766.56412,551.45102 L754.01781,552.33888 L738.36786,553.45072 L729.99301,558.83397 L726.00156,561.40165 L710.37163,571.44832 C710.37163,571.44832 709.95968,575.2958 709.82771,580.45909 C709.81971,580.85904 709.81171,581.26299 709.80371,581.67892 C709.6397,592.13352 710.76357,606.84355 718.37055,606.84355 Z" id="Path" fill="#565387" fill-rule="nonzero"></path>
            <path d="M778.56244,382.87372 L782.76188,397.87172 C782.76188,397.87172 790.16088,423.66824 790.96077,425.468 C791.76066,427.26776 811.15805,445.46531 811.95794,445.86525 C812.75783,446.26519 823.32038,452.26439 823.32038,452.26439 C823.32038,452.26439 824.1563,419.26884 823.35638,409.67013 C823.287102,407.561389 823.461574,405.451701 823.87633,403.38299 C825.15213,395.85999 828.37972,384.82948 831.05533,376.33463 C833.29502,369.21557 835.15478,363.8763 835.15478,363.8763 C835.15478,363.8763 788.36108,361.87657 789.96087,366.47595 C790.56479,368.21571 790.36887,371.12332 789.78487,374.03895 C788.82099,378.83432 786.80525,383.64566 785.56142,383.27372 C784.344786,382.998727 783.101234,382.860536 781.85391,382.86172 C780.1262,382.80972 778.56244,382.87372 778.56244,382.87372 Z" id="Path" fill="#EE8E9E" fill-rule="nonzero"></path>
            <path d="M789.785,374.03891 C801.524195,383.836996 818.301955,384.770277 831.05542,376.33462 C833.29511,369.21556 835.15487,363.87629 835.15487,363.87629 C835.15487,363.87629 788.36117,361.87656 789.96096,366.47594 C790.56483,368.21572 790.36886,371.12331 789.785,374.03891 Z" id="Path" fill="#000000" fill-rule="nonzero" opacity="0.1"></path>
            <path d="M846.55757,346.28656 C846.559432,349.9557 845.975412,353.601608 844.8275,357.08656 C844.538656,357.986048 844.204904,358.870491 843.8275,359.73656 C838.315418,372.790868 825.400243,381.164345 811.233,380.869011 C797.065756,380.573676 784.510762,371.66924 779.5475,358.39656 C778.173665,354.725775 777.442964,350.845617 777.3875,346.92656 C777.3675,346.71656 777.3675,346.49656 777.3675,346.28656 C777.3675,327.18025 792.856225,311.691525 811.962535,311.691525 C831.068845,311.691525 846.55757,327.18025 846.55757,346.28656 L846.55757,346.28656 Z" id="Path" fill="#EE8E9E" fill-rule="nonzero"></path>
            <path d="M778.56244,382.87372 L782.76188,397.87172 C782.76188,397.87172 790.16088,423.66824 790.96077,425.468 C791.76066,427.26776 811.15805,445.46531 811.95794,445.86525 C812.75783,446.26519 823.32038,452.26439 823.32038,452.26439 C823.32038,452.26439 824.1563,419.26884 823.35638,409.67013 C823.287102,407.561389 823.461574,405.451701 823.87633,403.38299 L821.15667,414.46948 L821.35667,436.66648 L822.95645,437.86632 L819.35694,443.26559 L819.35694,439.26613 C819.35694,439.26613 806.55866,426.8678 804.55894,421.6685 C802.55922,416.4692 795.36018,407.0545 795.36018,407.0545 C795.36018,407.0545 787.16128,393.27235 786.96131,390.87267 C786.80531,389.00093 783.3618,384.67351 781.85399,382.86174 C780.1262,382.80972 778.56244,382.87372 778.56244,382.87372 Z" id="Path" fill="#000000" fill-rule="nonzero" opacity="0.1"></path>
            <path d="M848.553,454.06414 C848.796562,455.439076 849.274088,456.762067 849.96482,457.9756 C854.33621,457.52766 869.2342,454.74803 872.51374,437.73033 C870.55805,435.90257 868.95025,434.46678 868.95025,434.46678 C868.95025,434.46678 848.353,449.26478 848.553,454.06414 Z" id="Path" fill="#000000" fill-rule="nonzero" opacity="0.1"></path>
            <path d="M709.80374,581.67892 C713.83913,578.82333 717.67865,574.92786 719.97034,573.848 C723.36988,572.24821 728.56918,567.04891 728.56918,567.04891 C728.56918,567.04891 729.88902,566.15304 731.91272,564.96519 C735.62423,562.78948 741.7074,559.6379 746.36678,559.24996 C750.5422,558.90201 764.41235,558.01412 775.32289,557.33421 C783.21782,556.83828 789.56096,556.45034 789.56096,556.45034 C789.56096,556.45034 802.55921,551.85096 808.15846,554.85056 C812.168594,556.859479 816.395553,558.402655 820.75676,559.44994 C820.75676,559.44994 820.76076,559.01399 820.78076,558.26208 L820.75676,558.25008 L816.55732,551.451 L772.19532,555.23447 L766.56405,551.451 L738.36785,553.45073 L729.993,558.83398 L722.76995,559.44992 C722.76995,559.44992 723.9258,560.14982 726.00155,561.40166 L710.37163,571.44832 C710.37163,571.44832 709.89172,575.91572 709.80374,581.67892 Z" id="Path" fill="#000000" fill-rule="nonzero" opacity="0.1"></path>
            <path d="M703.97249,583.44672 C706.089907,582.817727 708.074336,581.806536 709.82771,580.46312 L709.82771,580.45912 C713.85515,577.60751 717.68271,573.72405 719.97034,572.64819 C723.36988,571.0484 728.56918,565.84911 728.56918,565.84911 C728.56918,565.84911 739.16775,558.65011 746.36678,558.05016 C748.33048,557.88616 752.43393,557.60222 757.3653,557.28224 C762.41262,556.9463 768.31983,556.57035 773.69113,556.23839 C776.78671,556.04239 779.70228,555.85839 782.16596,555.70648 C786.58138,555.43448 789.56096,555.25048 789.56096,555.25048 C789.56096,555.25048 802.55921,550.6511 808.15846,553.6507 C812.168594,555.659619 816.395553,557.202795 820.75676,558.25008 C820.75676,558.25008 820.95676,544.25197 822.55652,538.45275 C824.15628,532.65353 826.356,522.05496 826.356,522.05496 C826.356,522.05496 828.15576,507.45696 829.95552,500.85781 C831.75528,494.25866 838.75433,457.46366 842.35385,455.06398 C845.95337,452.6643 847.95309,456.86374 847.95309,456.86374 C847.95309,456.86374 871.94986,456.46374 872.34981,430.06735 C872.34981,430.06735 861.15132,418.86886 860.35142,416.06924 C859.55152,413.26962 848.953,402.87104 848.953,402.87104 C848.953,402.87104 842.95381,391.67254 836.15472,391.47257 C832.942019,391.287769 829.719278,391.38682 826.52399,391.76857 L820.7568,415.26941 L820.9568,437.46641 L822.55659,438.66625 L818.95707,444.06552 L818.95707,440.06602 C818.95707,440.06602 806.15879,427.66769 804.15907,422.4684 C802.15935,417.26911 794.96031,407.8544 794.96031,407.8544 C794.96031,407.8544 786.76142,394.07225 786.56145,391.67257 C786.36148,389.27289 780.76223,382.84176 780.76223,382.84176 C779.632919,382.709339 778.492001,382.709339 777.36269,382.84176 C776.85769,382.876676 776.350961,382.805833 775.8749,382.63376 C772.646399,381.602076 769.208871,381.406662 765.88425,382.06582 C758.96917,383.50164 748.45057,386.12929 745.56697,389.27282 C741.16756,394.07217 734.76842,398.67155 727.56939,418.66882 L766.36417,432.66693 L763.04459,438.97807 L732.16877,497.65817 C732.16877,497.65817 731.14489,499.32594 729.75709,501.50565 L729.75709,501.50965 C727.95733,504.33727 725.54965,508.02476 723.96988,510.05649 C721.17026,513.65601 721.97015,525.05449 721.97015,525.05449 C721.97015,525.05449 721.37023,530.45376 719.3705,532.45349 C717.37077,534.45322 717.77071,541.85222 717.77071,541.85222 L712.57134,561.24972 C712.57134,561.24972 707.77198,565.64912 707.77198,567.64885 C707.77198,569.64858 703.97249,575.24785 703.97249,575.24785 C703.97249,575.24785 698.17328,584.84652 703.97249,583.44672 Z" id="Path" fill="#434175" fill-rule="nonzero"></path>
            <path d="M908.7449,597.84472 C908.7449,597.84472 896.1466,602.04416 892.74706,608.04335 C889.34752,614.04254 908.7449,597.84472 908.7449,597.84472 Z" id="Path" fill="#000000" fill-rule="nonzero" opacity="0.1"></path>
            <path d="M902.34576,584.64654 C901.94582,585.24646 885.09067,602.15965 886.14795,606.24363 C887.20523,610.32761 902.34576,584.64654 902.34576,584.64654 Z" id="Path" fill="#000000" fill-rule="nonzero" opacity="0.1"></path>
            <path d="M809.75824,596.64493 C809.75824,596.64493 790.96077,605.50972 789.361,609.37622 C787.76123,613.24272 809.75824,596.64493 809.75824,596.64493 Z" id="Path" fill="#000000" fill-rule="nonzero" opacity="0.1"></path>
            <path d="M808.5584,608.04339 C808.5584,608.04339 791.59424,615.24239 789.27777,617.04218 C786.9613,618.84197 808.5584,608.04339 808.5584,608.04339 Z" id="Path" fill="#000000" fill-rule="nonzero" opacity="0.1"></path>
            <path d="M800.75945,623.44132 C800.75945,623.44132 793.24625,629.04056 789.10391,624.64115 C784.96157,620.24174 800.75945,623.44132 800.75945,623.44132 Z" id="Path" fill="#000000" fill-rule="nonzero" opacity="0.1"></path>
            <path d="M828.95894,477.46099 C828.55571,478.0609 803.55908,523.05484 796.95994,526.45438 C790.3608,529.85392 828.95894,477.46099 828.95894,477.46099 Z" id="Path" fill="#000000" fill-rule="nonzero" opacity="0.1"></path>
            <path d="M827.75581,494.45872 C827.75581,495.45859 803.3591,547.65156 799.35964,548.25148 C795.36018,548.8514 827.75581,494.45872 827.75581,494.45872 Z" id="Path" fill="#000000" fill-rule="nonzero" opacity="0.1"></path>
            <path d="M734.96832,528.05417 C734.96832,528.05417 723.18547,553.21578 718.57053,554.65058 C713.95559,556.08538 734.96832,528.05417 734.96832,528.05417 Z" id="Path" fill="#000000" fill-rule="nonzero" opacity="0.1"></path>
            <path d="M732.96859,516.85572 C732.96859,516.85572 728.90668,525.65453 726.43824,525.65453 C723.9698,525.65453 732.96859,516.85572 732.96859,516.85572 Z" id="Path" fill="#000000" fill-rule="nonzero" opacity="0.1"></path>
            <path d="M846.557505,346.28656 C846.559432,349.9557 845.975412,353.601608 844.8275,357.08656 C844.538656,357.986048 844.204904,358.870491 843.8275,359.73656 C842.051063,359.467347 840.377623,358.732429 838.9774,357.60656 C837.492888,356.600508 836.252568,355.274722 835.34752,353.72656 C834.665246,352.077002 834.074351,350.391115 833.57752,348.67656 C831.952815,344.735734 828.320984,341.984115 824.08752,341.48656 C825.23742,343.44656 823.40746,346.13656 821.15746,346.48656 C818.90746,346.82656 816.7174,345.48656 815.16746,343.81656 C813.61752,342.14656 812.49746,340.11656 810.95738,338.44656 C809.40745,336.77656 807.21738,335.43656 804.96738,335.77656 C802.97738,336.07656 801.43738,337.59656 799.76743,338.72656 C798.10752,339.85656 795.77743,340.61656 794.16743,339.40656 C793.26743,338.73656 792.82743,337.59656 791.96736,336.86656 C789.75736,335.01656 786.31746,336.92656 784.68736,339.31656 C782.17736,343.01656 780.64744,345.25656 777.38743,346.92656 C777.36743,346.71656 777.36743,346.49656 777.36743,346.28656 C777.36743,327.18025 792.856155,311.691525 811.962465,311.691525 C831.068775,311.691525 846.557505,327.18025 846.557505,346.28656 L846.557505,346.28656 Z" id="Path" fill="#000000" fill-rule="nonzero" opacity="0.1"></path>
            <path d="M784.6906,338.31606 C786.31778,335.92427 789.7556,334.01197 791.97182,335.87122 C792.832,336.59285 793.27096,337.73397 794.16769,338.40964 C795.77489,339.62064 798.1081,338.8608 799.77047,337.72673 C801.43284,336.59266 802.97699,335.07956 804.96647,334.77685 C807.21694,334.43441 809.41001,335.77574 810.95547,337.44713 C812.50093,339.11852 813.62116,341.14625 815.16705,342.8172 C816.71294,344.48815 818.90705,345.82831 821.15725,345.48395 C823.40745,345.13959 825.24188,342.44703 824.08525,340.48642 C828.317512,340.985204 831.948004,343.736322 833.57286,347.67595 C834.070386,349.390221 834.661806,351.075836 835.34444,352.72516 C836.25038,354.273143 837.492417,355.597895 838.97886,356.60162 C840.81392,357.94673 843.03774,359.08103 845.2793,358.69093 C847.52086,358.30083 849.4182,355.73235 848.37648,353.70957 C849.09278,354.7975 850.63062,353.28207 850.86322,352.00044 C851.370262,349.189537 851.211917,346.298949 850.40087,343.56025 C849.29578,339.84319 846.97759,336.15702 847.87092,332.38346 C848.57819,329.39585 851.13132,327.25063 852.68117,324.60034 C855.42866,319.90205 854.69951,313.57306 851.35838,309.27661 C847.835291,305.006091 842.49226,302.664177 836.96438,302.96755 C835.461879,303.139385 833.946419,303.167619 832.43856,303.05187 C829.92794,302.67905 827.80476,301.06297 825.804,299.50118 L809.05383,286.426 C807.190491,284.783366 805.045571,283.49108 802.72252,282.61147 C800.35546,281.87735 797.51787,282.13063 795.76552,283.88315 C792.62952,287.01954 794.62295,292.41693 793.36387,296.66971 C792.27335,300.35316 788.76287,302.84937 785.12849,304.09357 C781.49411,305.33777 777.60525,305.61088 773.87083,306.51157 C772.75735,306.695172 771.715449,307.180318 770.85826,307.91433 C769.889485,309.109399 769.420463,310.632845 769.54935,312.16585 C769.52536,315.928105 770.417787,319.639624 772.14952,322.97972 C774.08929,326.71014 777.16363,330.54441 776.07552,334.60578 C775.49963,336.75526 773.8436,338.41127 772.38352,340.0906 C769.21815,343.73118 768.14979,349.1106 774.10598,347.23144 C779.84333,345.42128 781.45273,343.0754 784.6906,338.31606 Z" id="Path" fill="#434175" fill-rule="nonzero"></path>
            <g id="Group" opacity="0.1" transform="translate(769.000000, 310.000000)" fill="#000000" fill-rule="nonzero">
                <path d="M81.86675,38.05788 C81.63409,39.33956 80.09624,40.85494 79.37994,39.76705 C80.42168,41.78981 78.52434,44.35829 76.28277,44.74837 C74.0412,45.13845 71.81744,44.00417 69.98235,42.65907 C68.4958879,41.6553735 67.2538517,40.3306147 66.34795,38.78261 C65.6653118,37.1332923 65.0738856,35.4476843 64.57635,33.73342 C62.9514755,29.7937826 59.3209596,27.042668 55.08868,26.5439 C56.24541,28.50447 54.41094,31.19704 52.16068,31.5414 C49.91042,31.88576 47.71646,30.54561 46.17057,28.87465 C44.62468,27.20369 43.50443,25.17598 41.95902,23.50459 C40.41361,21.8332 38.22049,20.4919 35.97002,20.83431 C33.98052,21.13704 32.43645,22.6501 30.77402,23.7842 C29.11159,24.9183 26.77854,25.67812 25.17124,24.46712 C24.27451,23.79146 23.83554,22.65029 22.97543,21.92867 C20.75925,20.06941 17.32143,21.98177 15.69418,24.37349 C12.45639,29.13289 10.84702,31.47872 5.10947,33.2889 C3.22604,33.88313 2.04855,33.74873 1.41416,33.1758 C0.15516,36.06722 0.72849,38.61366 5.10947,37.23146 C10.84702,35.42128 12.45639,33.07539 15.69418,28.31606 C17.32138,25.92427 20.75925,24.01198 22.97543,25.87123 C23.83554,26.59285 24.27451,27.73396 25.17124,28.40962 C26.77854,29.62062 29.11167,28.8608 30.77402,27.72676 C32.43637,26.59272 33.98056,25.07955 35.97002,24.77687 C38.22051,24.4344 40.41363,25.77577 41.95902,27.44716 C43.50441,29.11855 44.62467,31.14626 46.17057,32.81722 C47.71647,34.48818 49.91057,35.82832 52.16068,35.48396 C54.41079,35.1396 56.24539,32.44704 55.08868,30.48641 C59.320967,30.9851976 62.9514811,33.7363299 64.57635,37.67598 C65.0739045,39.3902415 65.6653303,41.0758518 66.34795,42.72518 C67.2538673,44.273173 68.4959005,45.5979286 69.98235,46.60164 C71.81744,47.94673 74.04135,49.08101 76.28277,48.69093 C78.52419,48.30085 80.42168,45.73238 79.37994,43.70955 C80.09624,44.79755 81.63409,43.28206 81.86675,42.00044 C82.1777445,40.2744541 82.2385084,38.5126714 82.04717,36.76936 C82.00079,37.20072 81.94414,37.63094 81.86675,38.05788 Z" id="Path"></path>
                <path d="M7.02788,20.81508 C7.04314,20.76363 7.06524,20.71529 7.07915,20.66322 C8.16729,16.60188 5.09283,12.76759 3.15315,9.03722 C1.7925902,6.40658202 0.948836313,3.53955341 0.66755,0.59129 C0.592438152,1.11281303 0.554136796,1.63897716 0.55293,2.16588 C0.528940973,5.92812895 1.4213782,9.63964091 3.15313,12.97972 C4.47906,15.5298 6.33367,18.12856 7.02788,20.81508 Z" id="Path"></path>
                <path d="M83.68462,10.65779 C82.13482,13.30812 79.58162,15.45332 78.87432,18.44093 C78.6005833,19.7048882 78.6126779,21.014035 78.90972,22.27272 C79.65411,19.34432 82.15459,17.21672 83.68462,14.60036 C85.1282075,12.037758 85.6704384,9.06497074 85.22454,6.15773 C85.0070969,7.74322491 84.4841289,9.27147792 83.68462,10.65779 Z" id="Path"></path>
            </g>
            <path d="M729.757,501.50572 L729.757,501.50972 C730.023048,502.613323 730.227342,503.730905 730.36893,504.85726 C730.36893,504.85726 746.1668,541.85226 748.16653,544.05198 C748.78246,544.72789 751.10217,548.05545 754.01774,552.33885 C755.07361,553.88664 756.20544,555.56242 757.36529,557.28218 C763.41247,566.25697 770.16357,576.44762 770.16357,576.44762 L784.96157,589.44587 C784.96157,589.44587 817.15323,592.02152 827.38388,581.57493 C826.14401,580.71103 825.35613,580.24711 825.35613,580.24711 L820.95672,576.82757 C818.68505,572.99608 809.99819,569.26457 801.20338,566.33296 C793.10046,566.39296 786.47338,567.04888 786.47338,567.04888 L784.36566,561.49763 L782.16595,555.70642 L770.97947,526.25442 C770.97947,526.25442 763.76447,489.05942 761.36475,487.25967 C758.96503,485.45992 759.56499,479.86067 759.56499,479.86067 C759.56499,479.86067 763.9644,464.0628 762.36462,461.8631 C760.76484,459.6634 764.96427,443.46558 764.96427,443.46558 C764.546498,441.884197 763.899733,440.372401 763.0445,438.97817 L732.16868,497.65827 C732.16868,497.65827 731.14481,499.32603 729.757,501.50572 Z" id="Path" fill="#000000" fill-rule="nonzero" opacity="0.1"></path>
            <path d="M765.36422,442.26572 C765.36422,442.26572 761.16479,458.46353 762.76457,460.66324 C764.36435,462.86295 759.965,478.66082 759.965,478.66082 C759.965,478.66082 759.36508,484.26007 761.76476,486.05982 C764.16444,487.85957 771.37899,525.05456 771.37899,525.05456 L786.87248,565.84907 C786.87248,565.84907 835.35484,561.04971 830.35548,576.24766 C825.35612,591.44561 785.36155,588.24605 785.36155,588.24605 L770.56355,575.2478 C770.56355,575.2478 750.56625,545.05187 748.56655,542.85216 C746.56685,540.65245 730.76894,503.65745 730.76894,503.65745 C730.76894,503.65745 729.96905,496.25845 726.56951,492.45895 C723.16997,488.65945 725.76962,482.23304 725.76962,482.23304 C725.76962,482.23304 721.57018,433.86685 725.96962,428.06763 C730.36906,422.26841 760.76484,424.86807 765.36422,442.26572 Z" id="Path" fill="#EE8E9E" fill-rule="nonzero"></path>
            <path d="M740.56756,411.86982 L727.96926,419.46882 C727.96926,419.46882 724.36975,431.66718 721.57012,433.26696 C721.57012,433.26696 746.76673,419.26885 765.76417,451.46451 C765.76417,451.46451 765.16425,447.26507 767.7639,445.26534 C770.36355,443.26561 769.76363,434.66677 769.76363,434.66677 C770.455343,433.308107 771.056571,431.905244 771.56339,430.46734 C773.36314,426.06791 763.96441,400.87131 740.56756,411.86982 Z" id="Path" fill="#000000" fill-rule="nonzero" opacity="0.1"></path>
            <path d="M740.16762,411.06993 L727.56931,418.66893 C727.56931,418.66893 723.9698,430.86728 721.17018,432.46707 C721.17018,432.46707 746.36678,418.46895 765.36418,450.66462 C765.36418,450.66462 764.76426,446.46518 767.36391,444.46545 C769.96356,442.46572 769.36364,433.86688 769.36364,433.86688 C770.055353,432.508213 770.656581,431.105347 771.1634,429.66744 C772.9632,425.26802 763.56446,400.07141 740.16762,411.06993 Z" id="Path" fill="#434175" fill-rule="nonzero"></path>
            <ellipse id="Oval" fill="#FBD56F" fill-rule="nonzero" cx="627.87865" cy="721.4106" rx="37.55691" ry="39.86537"></ellipse>
            <ellipse id="Oval" fill="#000000" fill-rule="nonzero" opacity="0.1" cx="627.87865" cy="721.4106" rx="37.55691" ry="39.86537"></ellipse>
            <ellipse id="Oval" fill="#FBD56F" fill-rule="nonzero" cx="634.36028" cy="722.29847" rx="37.55691" ry="38.9775"></ellipse>
            <ellipse id="Oval" fill="#F9A826" fill-rule="nonzero" cx="90.14278" cy="735.4768" rx="46.38569" ry="7.84147"></ellipse>
            <path d="M109.323,722.64819 C111.3095,720.80232 113.173,718.62476 113.74538,715.9741 C114.31776,713.32344 113.18805,710.14492 110.65515,709.17638 C107.81701,708.09104 104.7842,710.05838 102.48482,712.04483 C100.18544,714.03128 97.55015,716.29883 94.54082,715.87818 C97.6896351,713.024356 99.1095382,708.727256 98.28099,704.55918 C98.1488536,703.712922 97.789327,702.918451 97.24081,702.26062 C95.66533,700.57629 92.80926,701.29962 90.92281,702.62653 C84.92364,706.84631 83.24968,714.99529 83.21704,722.32985 C82.61204,719.68423 83.12161,716.92734 83.10668,714.21344 C83.09175,711.49954 82.34803,708.49112 80.05868,707.03353 C78.6325812,706.265665 77.0287433,705.888691 75.4099,705.94086 C72.71318,705.84167 69.7097,706.11202 67.86804,708.08439 C65.57978,710.53508 66.17325,714.64691 68.16397,717.34487 C70.15469,720.04283 73.18275,721.7333 75.96997,723.59687 C78.205796,724.928543 80.1125645,726.747234 81.54841,728.91763 C81.7171842,729.22012 81.855705,729.538521 81.96196,729.86821 L98.868,729.86821 C102.663043,727.944691 106.180021,725.515934 109.323,722.64819 Z" id="Path" fill="#F9A826" fill-rule="nonzero"></path>
            <path d="M509.62131,684.34399 C511.687802,687.173435 513.377786,690.259462 514.6488,693.52453 C514.98474,694.3687 515.31354,695.25567 515.62463,696.18621 C520.62195,711.12139 512.70355,729.03121 510.43976,727.09936 C508.17597,725.16751 501.12152,721.58306 499.75748,726.62005 C498.39344,731.65704 493.35464,736.80535 493.35464,736.80535 C484.17447,746.03881 475.86487,736.06255 470.41046,725.75487 C468.628346,722.353944 467.043888,718.853052 465.66498,715.26964 C464.45398,712.10406 463.75842,709.91625 463.75842,709.91625 L501.99524,677.33752 C501.99524,677.33752 505.69174,679.0346 509.62131,684.34399 Z" id="Path" fill="#F9A826" fill-rule="nonzero"></path>
            <path d="M449.3573,705.17602 C451.423791,708.005467 453.113779,711.091494 454.3848,714.35656 C454.72073,715.20074 455.04953,716.0877 455.36063,717.01824 C460.35794,731.95342 452.43954,749.86324 450.17578,747.93139 C447.91202,745.99954 440.85754,742.41509 439.4935,747.45208 C438.12946,752.48907 433.09067,757.63738 433.09067,757.63738 C423.91049,766.87084 415.60089,756.89458 410.14648,746.58691 C408.364373,743.185994 406.779915,739.685116 405.401,736.10172 C404.19,732.93613 403.49445,730.74832 403.49445,730.74832 L441.73126,698.16959 C441.73126,698.16959 445.42773,699.86657 449.3573,705.17602 Z" id="Path" fill="#F9A826" fill-rule="nonzero"></path>
            <path d="M328.35394,733.95562 C328.13917,737.452755 327.470782,740.907146 326.36557,744.23199 C326.08545,745.0963 325.77252,745.98899 325.41818,746.90399 C319.73401,761.59149 302.20801,770.32642 301.698,767.39441 C301.18799,764.4624 298.04453,757.20075 293.77985,760.20807 C289.51517,763.21539 282.35028,763.96326 282.35028,763.96326 C269.38995,765.21326 269.35928,752.22955 271.7384,740.81293 C272.536824,737.057316 273.551216,733.350884 274.77652,729.7121 C275.86444,726.5022 276.72519,724.3739 276.72519,724.3739 L326.95435,723.69464 C326.95435,723.69464 328.71707,727.36022 328.35394,733.95562 Z" id="Path" fill="#F9A826" fill-rule="nonzero"></path>
            <path d="M263.45518,717.58764 C263.240406,721.084772 262.572018,724.539158 261.46681,727.864 C261.18671,728.72832 260.87381,729.621 260.51941,730.536 C254.83525,745.2235 237.30919,753.95843 236.79919,751.02642 C236.28919,748.09441 233.14572,740.83275 228.88103,743.84008 C224.61634,746.84741 217.45146,747.59527 217.45146,747.59527 C204.49113,748.84527 204.46046,735.86156 206.83957,724.44494 C207.637999,720.689327 208.65239,716.982895 209.87769,713.34411 C210.96562,710.13421 211.82635,708.00591 211.82635,708.00591 L262.0555,707.32665 C262.0555,707.32665 263.81831,710.99218 263.45518,717.58764 Z" id="Path" fill="#F9A826" fill-rule="nonzero"></path>
            <path d="M509.62131,684.34399 C511.687802,687.173435 513.377786,690.259462 514.6488,693.52453 C514.98474,694.3687 515.31354,695.25567 515.62463,696.18621 C520.62195,711.12139 512.70355,729.03121 510.43976,727.09936 C508.17597,725.16751 501.12152,721.58306 499.75748,726.62005 C498.39344,731.65704 493.35464,736.80535 493.35464,736.80535 C484.17447,746.03881 475.86487,736.06255 470.41046,725.75487 C468.628346,722.353944 467.043888,718.853052 465.66498,715.26964 C464.45398,712.10406 463.75842,709.91625 463.75842,709.91625 L501.99524,677.33752 C501.99524,677.33752 505.69174,679.0346 509.62131,684.34399 Z" id="Path" fill="#000000" fill-rule="nonzero" opacity="0.2"></path>
            <path d="M449.3573,705.17602 C451.423791,708.005467 453.113779,711.091494 454.3848,714.35656 C454.72073,715.20074 455.04953,716.0877 455.36063,717.01824 C460.35794,731.95342 452.43954,749.86324 450.17578,747.93139 C447.91202,745.99954 440.85754,742.41509 439.4935,747.45208 C438.12946,752.48907 433.09067,757.63738 433.09067,757.63738 C423.91049,766.87084 415.60089,756.89458 410.14648,746.58691 C408.364373,743.185994 406.779915,739.685116 405.401,736.10172 C404.19,732.93613 403.49445,730.74832 403.49445,730.74832 L441.73126,698.16959 C441.73126,698.16959 445.42773,699.86657 449.3573,705.17602 Z" id="Path" fill="#000000" fill-rule="nonzero" opacity="0.2"></path>
            <path d="M328.35394,733.95562 C328.13917,737.452755 327.470782,740.907146 326.36557,744.23199 C326.08545,745.0963 325.77252,745.98899 325.41818,746.90399 C319.73401,761.59149 302.20801,770.32642 301.698,767.39441 C301.18799,764.4624 298.04453,757.20075 293.77985,760.20807 C289.51517,763.21539 282.35028,763.96326 282.35028,763.96326 C269.38995,765.21326 269.35928,752.22955 271.7384,740.81293 C272.536824,737.057316 273.551216,733.350884 274.77652,729.7121 C275.86444,726.5022 276.72519,724.3739 276.72519,724.3739 L326.95435,723.69464 C326.95435,723.69464 328.71707,727.36022 328.35394,733.95562 Z" id="Path" fill="#000000" fill-rule="nonzero" opacity="0.2"></path>
            <path d="M263.45518,717.58764 C263.240406,721.084772 262.572018,724.539158 261.46681,727.864 C261.18671,728.72832 260.87381,729.621 260.51941,730.536 C254.83525,745.2235 237.30919,753.95843 236.79919,751.02642 C236.28919,748.09441 233.14572,740.83275 228.88103,743.84008 C224.61634,746.84741 217.45146,747.59527 217.45146,747.59527 C204.49113,748.84527 204.46046,735.86156 206.83957,724.44494 C207.637999,720.689327 208.65239,716.982895 209.87769,713.34411 C210.96562,710.13421 211.82635,708.00591 211.82635,708.00591 L262.0555,707.32665 C262.0555,707.32665 263.81831,710.99218 263.45518,717.58764 Z" id="Path" fill="#000000" fill-rule="nonzero" opacity="0.2"></path>
            <path d="M611.616,497.45385 C611.616,631.61266 566.232,740.36993 356.79593,740.36993 C216.06268,740.36993 107.18384,705.40193 101.97585,497.45385 C98.61685,363.33703 216.06262,254.53774 356.79585,254.53774 C497.52908,254.53774 611.616,363.29497 611.616,497.45385 Z" id="Path" fill="#F9A826" fill-rule="nonzero"></path>
            <path d="M308.99387,258.77852 L309.02365,258.77852 C309.01679,258.782496 309.009186,258.785022 309.00131,258.78594 L308.99387,258.77852 Z" id="Path" fill="#000000" fill-rule="nonzero" opacity="0.2"></path>
            <path d="M309.4924,258.69672 C310.13968,258.59259 311.41934,258.414 313.27933,258.27261 L309.13522,258.76367 C309.194727,258.748783 309.26912,258.733903 309.3584,258.71903 C309.40308,258.71157 309.44031,258.70412 309.4924,258.69672 Z" id="Path" fill="#000000" fill-rule="nonzero" opacity="0.2"></path>
            <path d="M497.78394,357.95372 L479.18394,364.64972 C469.702249,351.934316 459.500185,339.772317 448.62785,328.22345 C436.761261,315.566536 423.813768,303.968312 409.93244,293.56052 C362.30897,258.26514 325.47352,257.3649 313.30909,258.27252 L341.26863,254.98407 C367.693824,259.530852 393.106195,268.716991 416.33082,282.11777 C432.578814,291.484178 447.711813,302.663575 461.43955,315.44153 C485.78323,338.03689 497.78394,357.95372 497.78394,357.95372 Z" id="Path" fill="#000000" fill-rule="nonzero" opacity="0.2"></path>
            <path d="M329.63989,370.60177 C329.63989,370.60177 305.08789,288.76177 325.91989,266.44177 C325.91989,266.44177 358.65589,255.28177 383.20789,318.52177 L329.63989,370.60177 Z" id="Path" fill="#000000" fill-rule="nonzero" opacity="0.2"></path>
            <path d="M453.96191,294.16335 C453.96191,294.16335 519.07147,238.83404 547.87506,248.95864 C547.87506,248.95864 571.23346,274.46508 523.16064,322.33059 L453.96191,294.16335 Z" id="Path" fill="#F9A826" fill-rule="nonzero"></path>
            <path d="M453.96191,294.16335 C453.96191,294.16335 519.07147,238.83404 547.87506,248.95864 C547.87506,248.95864 571.23346,274.46508 523.16064,322.33059 L453.96191,294.16335 Z" id="Path" fill="#000000" fill-rule="nonzero" opacity="0.2"></path>
            <path d="M657,559.20586 C657,631.31886 605.25159,688.28986 556.56,688.28986 C507.86841,688.28986 480.672,631.31879 480.672,559.20586 C480.672,487.09293 520.226,431.4518 568.836,428.63381 C645.84,424.16979 657,487.09289 657,559.20586 Z" id="Path" fill="#F9A826" fill-rule="nonzero"></path>
            <path d="M657,559.20586 C657,631.31886 605.25159,688.28986 556.56,688.28986 C507.86841,688.28986 480.672,631.31879 480.672,559.20586 C480.672,487.09293 520.226,431.4518 568.836,428.63381 C645.84,424.16979 657,487.09289 657,559.20586 Z" id="Path" fill="#000000" fill-rule="nonzero" opacity="0.2"></path>
            <ellipse id="Oval" fill="#F9A826" fill-rule="nonzero" cx="553.58395" cy="569.99383" rx="16.36801" ry="20.83203"></ellipse>
            <ellipse id="Oval" fill="#F9A826" fill-rule="nonzero" cx="611.61597" cy="552.13787" rx="16.36798" ry="20.83203"></ellipse>
            <path d="M464.616545,302.00493 C464.627627,306.67118 463.539251,311.274419 461.43954,315.44158 C458.667997,320.978763 454.171458,325.464851 448.62784,328.2235 C436.761251,315.566586 423.813758,303.968362 409.93243,293.56057 C411.169067,289.310129 413.357151,285.397008 416.33081,282.11785 C421.51548,276.337704 428.90706,273.025819 436.67175,273.00385 C452.10236,273.00385 464.616545,285.98659 464.616545,302.00493 Z" id="Path" fill="#FAD46F" fill-rule="nonzero"></path>
        </g>
    </g>
</svg>